<?xml version="1.0" encoding="UTF-8" standalone="no" ?>
<!DOCTYPE svg PUBLIC "-//W3C//DTD SVG 1.1//EN" "http://www.w3.org/Graphics/SVG/1.1/DTD/svg11.dtd">
<svg xmlns="http://www.w3.org/2000/svg" xmlns:xlink="http://www.w3.org/1999/xlink" version="1.1" width="1080" height="1080" viewBox="0 0 1080 1080" xml:space="preserve">
<desc>Created with Fabric.js 5.2.4</desc>
<defs>
</defs>
<g transform="matrix(1 0 0 1 540 540)" id="f8a90b43-e5cd-4514-b96b-71d757362575"  >
<rect style="stroke: none; stroke-width: 1; stroke-dasharray: none; stroke-linecap: butt; stroke-dashoffset: 0; stroke-linejoin: miter; stroke-miterlimit: 4; fill: rgb(255,255,255); fill-rule: nonzero; opacity: 1; visibility: hidden;" vector-effect="non-scaling-stroke"  x="-540" y="-540" rx="0" ry="0" width="1080" height="1080" />
</g>
<g transform="matrix(1 0 0 1 540 540)" id="88fb8f28-11e1-4cb8-ab4e-391ce157e6a0"  >
</g>
<g transform="matrix(11.37 0 0 11.37 540 540)"  >
<g style=""   >
		<g transform="matrix(1 0 0 1 42.5 0)"  >
<path style="stroke: none; stroke-width: 1; stroke-dasharray: none; stroke-linecap: butt; stroke-dashoffset: 0; stroke-linejoin: miter; stroke-miterlimit: 4; fill: rgb(95,95,95); fill-rule: nonzero; opacity: 1;" vector-effect="non-scaling-stroke"  transform=" translate(-90, -14.5)" d="M 95 12.6894 L 95 16.3106 C 94.1326 16.3509 93.4942 16.5269 93.0848 16.8387 C 92.6657 17.1505 92.3489 17.6384 92.1345 18.3023 C 91.9103 18.9662 91.7982 20.0878 91.7982 21.667 C 91.7982 23.6587 91.7105 25.0166 91.5351 25.7409 C 91.3596 26.4752 91.0819 27.0586 90.7018 27.4912 C 90.3119 27.9337 89.7466 28.2959 89.0058 28.5775 C 88.2554 28.8592 87.1784 29 85.7749 29 L 85 29 L 85 25.3788 C 86.0429 25.3788 86.7251 25.3184 87.0468 25.1977 C 87.3684 25.0871 87.6072 24.901 87.7632 24.6394 C 87.9094 24.3779 87.9825 23.8951 87.9825 23.1909 C 87.9825 21.9235 88.0409 20.5102 88.1579 18.9511 C 88.2359 17.9351 88.5039 17.0248 88.962 16.2201 C 89.3031 15.6266 89.8928 15.0482 90.731 14.4849 C 90.0195 14.0624 89.4542 13.5243 89.0351 12.8704 C 88.616 12.2267 88.3382 11.4069 88.2018 10.411 C 88.1433 9.97849 88.075 8.57024 87.9971 6.18626 C 87.9678 5.31113 87.9142 4.76795 87.8363 4.55671 C 87.7096 4.24488 87.4756 4.0085 87.1345 3.84755 C 86.7836 3.68661 86.0721 3.60614 85 3.60614 L 85 3.69547e-8 L 85.7749 1.04695e-7 C 87.1881 2.28245e-7 88.2359 0.120708 88.9181 0.362123 C 89.6004 0.593479 90.1559 0.940514 90.5848 1.40323 C 91.0136 1.85588 91.3255 2.43427 91.5205 3.1384 C 91.7057 3.83247 91.7982 5.03451 91.7982 6.74454 C 91.7982 8.65574 91.9006 9.94329 92.1053 10.6072 C 92.3002 11.2811 92.6121 11.7841 93.0409 12.116 C 93.46 12.448 94.1131 12.6391 95 12.6894 Z" stroke-linecap="round" />
</g>
		<g transform="matrix(1 0 0 1 -42.5 0)"  >
<path style="stroke: none; stroke-width: 1; stroke-dasharray: none; stroke-linecap: butt; stroke-dashoffset: 0; stroke-linejoin: miter; stroke-miterlimit: 4; fill: rgb(95,95,95); fill-rule: nonzero; opacity: 1;" vector-effect="non-scaling-stroke"  transform=" translate(-5, -14.5)" d="M 0 16.3106 L 0 12.6894 C 0.867447 12.6491 1.50585 12.4731 1.91521 12.1613 C 2.33431 11.8495 2.65107 11.3616 2.8655 10.6977 C 3.08967 10.0338 3.20176 8.91224 3.20176 7.33299 C 3.20176 5.34131 3.28947 3.98335 3.46491 3.2591 C 3.64035 2.5248 3.91813 1.94138 4.29825 1.50884 C 4.68811 1.06625 5.25341 0.704128 5.99415 0.422477 C 6.74464 0.140826 7.82164 0 9.22515 0 L 10 0 L 10 3.62123 C 8.95712 3.62123 8.27486 3.68158 7.95322 3.80229 C 7.63158 3.91294 7.39279 4.09903 7.23684 4.36056 C 7.09065 4.62209 7.01755 5.10493 7.01755 5.80905 C 7.01755 7.07648 6.95907 8.48977 6.84211 10.0489 C 6.76413 11.0649 6.4961 11.9752 6.03801 12.7799 C 5.69688 13.3734 5.10721 13.9518 4.26901 14.5151 C 4.98051 14.9376 5.54581 15.4757 5.96491 16.1296 C 6.38402 16.7733 6.6618 17.5931 6.79825 18.589 C 6.85673 19.0215 6.92495 20.4298 7.00293 22.8137 C 7.03217 23.6889 7.08577 24.232 7.16374 24.4433 C 7.29045 24.7551 7.52437 24.9915 7.8655 25.1524 C 8.21638 25.3134 8.92788 25.3939 10 25.3939 L 10 29 L 9.22515 29 C 7.81189 29 6.76413 28.8793 6.08187 28.6379 C 5.39961 28.4065 4.84406 28.0595 4.41521 27.5968 C 3.98636 27.1441 3.67447 26.5657 3.47953 25.8616 C 3.29435 25.1675 3.20176 23.9655 3.20176 22.2555 C 3.20176 20.3443 3.09942 19.0567 2.89474 18.3928 C 2.69981 17.7189 2.38791 17.2159 1.95906 16.884 C 1.53996 16.552 0.88694 16.3609 0 16.3106 Z" stroke-linecap="round" />
</g>
		<g transform="matrix(1 0 0 1 28.24 -0.09)"  >
<path style="stroke: none; stroke-width: 1; stroke-dasharray: none; stroke-linecap: butt; stroke-dashoffset: 0; stroke-linejoin: miter; stroke-miterlimit: 4; fill: rgb(95,95,95); fill-rule: nonzero; opacity: 1;" vector-effect="non-scaling-stroke"  transform=" translate(-75.74, -14.41)" d="M 75.9243 8.30713 L 81.6187 20.5176 L 80.3071 20.5176 L 78.3896 16.5 L 73.127 16.5 L 71.2178 20.5176 L 69.8564 20.5176 L 75.6255 8.30713 L 75.9243 8.30713 Z M 75.7749 10.897 L 73.6748 15.3213 L 77.8501 15.3213 L 75.7749 10.897 Z" stroke-linecap="round" />
</g>
		<g transform="matrix(1 0 0 1 18.03 -0.09)"  >
<path style="stroke: none; stroke-width: 1; stroke-dasharray: none; stroke-linecap: butt; stroke-dashoffset: 0; stroke-linejoin: miter; stroke-miterlimit: 4; fill: rgb(95,95,95); fill-rule: nonzero; opacity: 1;" vector-effect="non-scaling-stroke"  transform=" translate(-65.53, -14.41)" d="M 62.0295 8.30713 L 69.0271 8.30713 L 69.0271 9.51074 L 63.2498 9.51074 L 63.2498 13.3291 L 68.9773 13.3291 L 68.9773 14.5244 L 63.2498 14.5244 L 63.2498 19.314 L 68.9773 19.314 L 68.9773 20.5176 L 62.0295 20.5176 L 62.0295 8.30713 Z" stroke-linecap="round" />
</g>
		<g transform="matrix(1 0 0 1 8.37 -0.09)"  >
<path style="stroke: none; stroke-width: 1; stroke-dasharray: none; stroke-linecap: butt; stroke-dashoffset: 0; stroke-linejoin: miter; stroke-miterlimit: 4; fill: rgb(95,95,95); fill-rule: nonzero; opacity: 1;" vector-effect="non-scaling-stroke"  transform=" translate(-55.87, -14.41)" d="M 51.9614 8.30713 L 54.3936 8.30713 C 55.7493 8.30713 56.668 8.36247 57.1494 8.47314 C 57.8743 8.63916 58.4637 8.99609 58.9175 9.54395 C 59.3713 10.0863 59.5981 10.7559 59.5981 11.5527 C 59.5981 12.2168 59.4404 12.8006 59.125 13.3042 C 58.8151 13.8078 58.3696 14.1896 57.7886 14.4497 C 57.2075 14.7043 56.4051 14.8343 55.3813 14.8398 L 59.7725 20.5176 L 58.2617 20.5176 L 53.8789 14.8398 L 53.1816 14.8398 L 53.1816 20.5176 L 51.9614 20.5176 L 51.9614 8.30713 Z M 53.1816 9.50244 L 53.1816 13.6528 L 55.2817 13.6694 C 56.0952 13.6694 56.6956 13.592 57.083 13.437 C 57.4759 13.2821 57.7803 13.0358 57.9961 12.6982 C 58.2174 12.3551 58.3281 11.9733 58.3281 11.5527 C 58.3281 11.1432 58.2174 10.7725 57.9961 10.4404 C 57.7747 10.1029 57.4842 9.86214 57.1245 9.71826 C 56.7648 9.57438 56.1672 9.50244 55.3315 9.50244 L 53.1816 9.50244 Z" stroke-linecap="round" />
</g>
		<g transform="matrix(1 0 0 1 -1.76 -0.09)"  >
<path style="stroke: none; stroke-width: 1; stroke-dasharray: none; stroke-linecap: butt; stroke-dashoffset: 0; stroke-linejoin: miter; stroke-miterlimit: 4; fill: rgb(95,95,95); fill-rule: nonzero; opacity: 1;" vector-effect="non-scaling-stroke"  transform=" translate(-45.74, -14.41)" d="M 41.8354 8.30713 L 44.2676 8.30713 C 45.6234 8.30713 46.542 8.36247 47.0234 8.47314 C 47.7484 8.63916 48.3377 8.99609 48.7915 9.54395 C 49.2453 10.0863 49.4722 10.7559 49.4722 11.5527 C 49.4722 12.2168 49.3145 12.8006 48.999 13.3042 C 48.6891 13.8078 48.2437 14.1896 47.6626 14.4497 C 47.0815 14.7043 46.2791 14.8343 45.2554 14.8398 L 49.6465 20.5176 L 48.1357 20.5176 L 43.7529 14.8398 L 43.0557 14.8398 L 43.0557 20.5176 L 41.8354 20.5176 L 41.8354 8.30713 Z M 43.0557 9.50244 L 43.0557 13.6528 L 45.1558 13.6694 C 45.9692 13.6694 46.5697 13.592 46.957 13.437 C 47.3499 13.2821 47.6543 13.0358 47.8701 12.6982 C 48.0915 12.3551 48.2021 11.9733 48.2021 11.5527 C 48.2021 11.1432 48.0915 10.7725 47.8701 10.4404 C 47.6488 10.1029 47.3582 9.86214 46.9985 9.71826 C 46.6388 9.57438 46.0412 9.50244 45.2056 9.50244 L 43.0557 9.50244 Z" stroke-linecap="round" />
</g>
		<g transform="matrix(1 0 0 1 -14.41 -0.09)"  >
<path style="stroke: none; stroke-width: 1; stroke-dasharray: none; stroke-linecap: butt; stroke-dashoffset: 0; stroke-linejoin: miter; stroke-miterlimit: 4; fill: rgb(95,95,95); fill-rule: nonzero; opacity: 1;" vector-effect="non-scaling-stroke"  transform=" translate(-33.09, -14.41)" d="M 33.0125 8 C 34.8608 8 36.4075 8.61702 37.6526 9.85107 C 38.8977 11.0851 39.5203 12.6042 39.5203 14.4082 C 39.5203 16.1956 38.8977 17.7119 37.6526 18.957 C 36.413 20.2021 34.8995 20.8247 33.1121 20.8247 C 31.3025 20.8247 29.7751 20.2049 28.53 18.9653 C 27.2849 17.7257 26.6624 16.2261 26.6624 14.4663 C 26.6624 13.2931 26.9446 12.2057 27.509 11.2041 C 28.079 10.2025 28.8538 9.41943 29.8333 8.85498 C 30.8127 8.28499 31.8725 8 33.0125 8 Z M 33.0706 9.19531 C 32.1685 9.19531 31.3136 9.4305 30.5056 9.90088 C 29.6977 10.3713 29.0668 11.0049 28.613 11.8018 C 28.1593 12.5986 27.9324 13.4868 27.9324 14.4663 C 27.9324 15.9162 28.4332 17.1419 29.4348 18.1436 C 30.442 19.1396 31.6539 19.6377 33.0706 19.6377 C 34.0168 19.6377 34.8912 19.408 35.6936 18.9487 C 36.5015 18.4894 37.1296 17.8613 37.5779 17.0645 C 38.0317 16.2676 38.2585 15.3822 38.2585 14.4082 C 38.2585 13.4398 38.0317 12.5654 37.5779 11.7852 C 37.1296 10.9993 36.496 10.3713 35.677 9.90088 C 34.858 9.4305 33.9892 9.19531 33.0706 9.19531 Z" stroke-linecap="round" />
</g>
		<g transform="matrix(1 0 0 1 -28.53 -0.09)"  >
<path style="stroke: none; stroke-width: 1; stroke-dasharray: none; stroke-linecap: butt; stroke-dashoffset: 0; stroke-linejoin: miter; stroke-miterlimit: 4; fill: rgb(95,95,95); fill-rule: nonzero; opacity: 1;" vector-effect="non-scaling-stroke"  transform=" translate(-18.97, -14.41)" d="M 24.9365 10.5732 L 23.9736 11.312 C 23.4424 10.6203 22.8032 10.0973 22.0562 9.74316 C 21.3146 9.38346 20.4984 9.20361 19.6074 9.20361 C 18.6335 9.20361 17.7314 9.4388 16.9014 9.90918 C 16.0713 10.374 15.4266 11.0021 14.9673 11.7935 C 14.5135 12.5793 14.2866 13.4647 14.2866 14.4497 C 14.2866 15.9383 14.7957 17.1807 15.814 18.1768 C 16.8377 19.1729 18.1271 19.6709 19.6821 19.6709 C 21.3921 19.6709 22.8226 19.0013 23.9736 17.6621 L 24.9365 18.3926 C 24.3278 19.1673 23.5669 19.7677 22.6538 20.1938 C 21.7463 20.6144 20.7308 20.8247 19.6074 20.8247 C 17.4714 20.8247 15.7863 20.1136 14.5522 18.6914 C 13.5174 17.4906 13 16.0407 13 14.3418 C 13 12.5544 13.6253 11.0519 14.876 9.83447 C 16.1322 8.61149 17.7038 8 19.5908 8 C 20.7308 8 21.7601 8.22689 22.6787 8.68066 C 23.5973 9.12891 24.3499 9.75977 24.9365 10.5732 Z" stroke-linecap="round" />
</g>
</g>
</g>
</svg>